<svg width="324pt" height="218pt" viewBox="0.00 0.00 324.06 217.53" xmlns="http://www.w3.org/2000/svg" xmlns:xlink="http://www.w3.org/1999/xlink">
<g id="graph0" class="graph" transform="scale(1 1) rotate(0) translate(4 213.53)">
<title>G</title>
<polygon fill="white" stroke="transparent" points="-4,4 -4,-213.53 320.06,-213.53 320.06,4 -4,4"></polygon>
<!-- n1 -->
<g id="node1" class="node">
<title>n1</title>
<ellipse fill="none" stroke="black" cx="115.72" cy="-55.55" rx="27" ry="18"></ellipse>
<text text-anchor="middle" x="115.72" y="-51.85" font-family="Times,serif" font-size="14.00">Clock</text>
</g>
<!-- n2 -->
<g id="node2" class="node">
<title>n2</title>
<ellipse fill="none" stroke="black" cx="174.11" cy="-112.66" rx="27" ry="18"></ellipse>
<text text-anchor="middle" x="174.11" y="-108.96" font-family="Times,serif" font-size="14.00">Event</text>
</g>
<!-- n1&#45;&gt;n2 -->
<g id="edge1" class="edge">
<title>n1-&gt;n2</title>
<path fill="none" stroke="black" d="M131.06,-70.56C137.31,-76.67 144.67,-83.87 151.52,-90.56"></path>
<polygon fill="black" stroke="black" points="149.07,-93.07 158.67,-97.56 153.97,-88.06 149.07,-93.07"></polygon>
<text text-anchor="middle" x="121.29" y="-84.36" font-family="Times,serif" font-size="14.00">event</text>
</g>
<!-- n7 -->
<g id="node7" class="node">
<title>n7</title>
<ellipse fill="black" stroke="black" cx="62.8" cy="-1.8" rx="1.8" ry="1.8"></ellipse>
<text text-anchor="middle" x="30.5" y="-7.4" font-family="Times,serif" font-size="14.00">KeyType</text>
</g>
<!-- n1&#45;&gt;n7 -->
<g id="edge2" class="edge">
<title>n1-&gt;n7</title>
<path fill="none" stroke="black" d="M100.69,-40.29C91.21,-30.65 79.29,-18.55 71.38,-10.51"></path>
<polygon fill="black" stroke="black" points="73.83,-8.01 64.32,-3.34 68.84,-12.93 73.83,-8.01"></polygon>
<text text-anchor="middle" x="73.54" y="-29.2" font-family="Times,serif" font-size="14.00">key</text>
</g>
<!-- n3 -->
<g id="node3" class="node">
<title>n3</title>
<ellipse fill="black" stroke="black" cx="222.97" cy="-46.97" rx="1.8" ry="1.8"></ellipse>
<text text-anchor="middle" x="182.67" y="-52.57" font-family="Times,serif" font-size="14.00">NameType</text>
</g>
<!-- n2&#45;&gt;n3 -->
<g id="edge3" class="edge">
<title>n2-&gt;n3</title>
<path fill="none" stroke="black" d="M186.19,-96.42C195.42,-84.02 207.84,-67.32 215.62,-56.85"></path>
<polygon fill="black" stroke="black" points="218.57,-58.75 221.73,-48.64 212.96,-54.57 218.57,-58.75"></polygon>
<text text-anchor="middle" x="180.91" y="-80.44" font-family="Times,serif" font-size="14.00">name</text>
</g>
<!-- n4 -->
<g id="node4" class="node">
<title>n4</title>
<ellipse fill="black" stroke="black" cx="189.47" cy="-192.73" rx="1.8" ry="1.8"></ellipse>
<text text-anchor="middle" x="154.17" y="-198.33" font-family="Times,serif" font-size="14.00">RuleType</text>
</g>
<!-- n2&#45;&gt;n4 -->
<g id="edge4" class="edge">
<title>n2-&gt;n4</title>
<path fill="none" stroke="black" d="M177.6,-130.83C180.52,-146.06 184.6,-167.37 187.14,-180.6"></path>
<polygon fill="black" stroke="black" points="183.74,-181.45 189.06,-190.61 190.62,-180.13 183.74,-181.45"></polygon>
<text text-anchor="middle" x="167.87" y="-159.52" font-family="Times,serif" font-size="14.00">rule</text>
</g>
<!-- n5 -->
<g id="node5" class="node">
<title>n5</title>
<ellipse fill="black" stroke="black" cx="253.86" cy="-129.09" rx="1.8" ry="1.8"></ellipse>
<text text-anchor="middle" x="284.06" y="-134.69" font-family="Times,serif" font-size="14.00">DistType</text>
</g>
<!-- n2&#45;&gt;n5 -->
<g id="edge5" class="edge">
<title>n2-&gt;n5</title>
<path fill="none" stroke="black" d="M200.23,-118.04C214.18,-120.92 230.69,-124.32 241.67,-126.58"></path>
<polygon fill="black" stroke="black" points="241.28,-130.07 251.78,-128.66 242.69,-123.22 241.28,-130.07"></polygon>
<text text-anchor="middle" x="234.95" y="-126.11" font-family="Times,serif" font-size="14.00">dist</text>
</g>
<!-- n6 -->
<g id="node6" class="node">
<title>n6</title>
<ellipse fill="black" stroke="black" cx="108.47" cy="-161.81" rx="1.8" ry="1.8"></ellipse>
<text text-anchor="middle" x="66.67" y="-167.41" font-family="Times,serif" font-size="14.00">MatchType</text>
</g>
<!-- n2&#45;&gt;n6 -->
<g id="edge6" class="edge">
<title>n2-&gt;n6</title>
<path fill="none" stroke="black" d="M155.83,-126.35C143.57,-135.53 127.92,-147.25 118.04,-154.64"></path>
<polygon fill="black" stroke="black" points="115.93,-151.85 110.02,-160.65 120.13,-157.46 115.93,-151.85"></polygon>
<text text-anchor="middle" x="114.44" y="-144.3" font-family="Times,serif" font-size="14.00">match</text>
</g>
</g>
</svg>