<svg width="285pt" height="195pt" viewBox="0.00 0.00 284.53 194.60" xmlns="http://www.w3.org/2000/svg" xmlns:xlink="http://www.w3.org/1999/xlink">
<g id="graph0" class="graph" transform="scale(1 1) rotate(0) translate(4 190.6)">
<title>G</title>
<polygon fill="white" stroke="transparent" points="-4,4 -4,-190.6 280.53,-190.6 280.53,4 -4,4"></polygon>
<!-- n1 -->
<g id="node1" class="node">
<title>n1</title>
<ellipse fill="none" stroke="black" cx="27" cy="-69.66" rx="27" ry="18"></ellipse>
<text text-anchor="middle" x="27" y="-65.96" font-family="Times,serif" font-size="14.00">T</text>
</g>
<!-- n6 -->
<g id="node6" class="node">
<title>n6</title>
<ellipse fill="black" stroke="black" cx="88.34" cy="-103.46" rx="1.8" ry="1.8"></ellipse>
<text text-anchor="middle" x="108.04" y="-90.46" font-family="Times,serif" font-size="14.00">Name</text>
</g>
<!-- n1&#45;&gt;n6 -->
<g id="edge6" class="edge">
<title>n1-&gt;n6</title>
<path fill="none" stroke="black" d="M48.11,-81.29C58.1,-86.79 69.59,-93.12 77.72,-97.61"></path>
<polygon fill="black" stroke="black" points="76.04,-100.68 86.49,-102.44 79.42,-94.55 76.04,-100.68"></polygon>
<text text-anchor="middle" x="39.92" y="-93.25" font-family="Times,serif" font-size="14.00">tname</text>
</g>
<!-- n2 -->
<g id="node2" class="node">
<title>n2</title>
<ellipse fill="none" stroke="black" cx="163.8" cy="-110.87" rx="27" ry="18"></ellipse>
<text text-anchor="middle" x="163.8" y="-107.17" font-family="Times,serif" font-size="14.00">S</text>
</g>
<!-- n2&#45;&gt;n6 -->
<g id="edge7" class="edge">
<title>n2-&gt;n6</title>
<path fill="none" stroke="black" d="M136.98,-108.24C124.4,-107 110.05,-105.59 100.21,-104.63"></path>
<polygon fill="black" stroke="black" points="100.49,-101.14 90.19,-103.64 99.8,-108.1 100.49,-101.14"></polygon>
<text text-anchor="middle" x="95.1" y="-110.23" font-family="Times,serif" font-size="14.00">sname</text>
</g>
<!-- n3 -->
<g id="node3" class="node">
<title>n3</title>
<ellipse fill="none" stroke="black" cx="119.04" cy="-18" rx="27" ry="18"></ellipse>
<text text-anchor="middle" x="119.04" y="-14.3" font-family="Times,serif" font-size="14.00">I</text>
</g>
<!-- n3&#45;&gt;n1 -->
<g id="edge1" class="edge">
<title>n3-&gt;n1</title>
<path fill="none" stroke="black" d="M98.15,-29.72C85.92,-36.59 70.26,-45.38 56.74,-52.96"></path>
<polygon fill="black" stroke="black" points="54.81,-50.03 47.8,-57.98 58.24,-56.14 54.81,-50.03"></polygon>
<text text-anchor="middle" x="71.95" y="-45.14" font-family="Times,serif" font-size="14.00">it</text>
</g>
<!-- n3&#45;&gt;n2 -->
<g id="edge2" class="edge">
<title>n3-&gt;n2</title>
<path fill="none" stroke="black" d="M127.46,-35.47C134.08,-49.22 143.43,-68.61 150.98,-84.29"></path>
<polygon fill="black" stroke="black" points="147.92,-85.99 155.41,-93.48 154.23,-82.95 147.92,-85.99"></polygon>
<text text-anchor="middle" x="132.72" y="-63.68" font-family="Times,serif" font-size="14.00">is</text>
</g>
<!-- n4 -->
<g id="node4" class="node">
<title>n4</title>
<ellipse fill="none" stroke="black" cx="74.7" cy="-168.6" rx="27" ry="18"></ellipse>
<text text-anchor="middle" x="74.7" y="-164.9" font-family="Times,serif" font-size="14.00">O</text>
</g>
<!-- n4&#45;&gt;n1 -->
<g id="edge3" class="edge">
<title>n4-&gt;n1</title>
<path fill="none" stroke="black" d="M66.39,-151.36C59.05,-136.13 48.23,-113.69 39.78,-96.17"></path>
<polygon fill="black" stroke="black" points="42.87,-94.51 35.37,-87.02 36.56,-97.55 42.87,-94.51"></polygon>
<text text-anchor="middle" x="45.59" y="-127.57" font-family="Times,serif" font-size="14.00">ot</text>
</g>
<!-- n4&#45;&gt;n2 -->
<g id="edge4" class="edge">
<title>n4-&gt;n2</title>
<path fill="none" stroke="black" d="M94.47,-155.79C106.67,-147.89 122.5,-137.63 135.95,-128.91"></path>
<polygon fill="black" stroke="black" points="137.9,-131.82 144.38,-123.45 134.09,-125.95 137.9,-131.82"></polygon>
<text text-anchor="middle" x="107.21" y="-131.15" font-family="Times,serif" font-size="14.00">os</text>
</g>
<!-- n5 -->
<g id="node5" class="node">
<title>n5</title>
<ellipse fill="none" stroke="black" cx="249.53" cy="-141.34" rx="27" ry="18"></ellipse>
<text text-anchor="middle" x="249.53" y="-137.64" font-family="Times,serif" font-size="14.00">M</text>
</g>
<!-- n5&#45;&gt;n2 -->
<g id="edge5" class="edge">
<title>n5-&gt;n2</title>
<path fill="none" stroke="black" d="M225.65,-132.85C216.9,-129.74 206.82,-126.16 197.38,-122.81"></path>
<polygon fill="black" stroke="black" points="198.44,-119.47 187.85,-119.42 196.1,-126.07 198.44,-119.47"></polygon>
<text text-anchor="middle" x="204.51" y="-131.63" font-family="Times,serif" font-size="14.00">m</text>
</g>
</g>
</svg>